<?xml version="1.0" standalone="no"?><!DOCTYPE svg PUBLIC "-//W3C//DTD SVG 1.1//EN" "http://www.w3.org/Graphics/SVG/1.1/DTD/svg11.dtd"><svg t="1577417776084" class="icon" viewBox="0 0 1024 1024" version="1.1" xmlns="http://www.w3.org/2000/svg" p-id="13757" xmlns:xlink="http://www.w3.org/1999/xlink" width="200" height="200"><defs><style type="text/css"></style></defs><path d="M838.4 273.4H185.6c-27.4 0-49.7-22.2-49.7-49.7s22.2-49.7 49.7-49.7h652.9c27.4 0 49.7 22.2 49.7 49.7s-22.3 49.7-49.8 49.7z" fill="#169F65" opacity=".8" p-id="13758"></path><path d="M570 450.9H375.5c-27.4 0-49.7-22.2-49.7-49.7s22.2-49.7 49.7-49.7H570c27.4 0 49.7 22.2 49.7 49.7S597.5 450.9 570 450.9z" fill="#169F65" opacity=".8" p-id="13759"></path><path d="M444.9 579.5h-69.4c-27.4 0-49.7-22.2-49.7-49.7s22.2-49.7 49.7-49.7h69.4c27.4 0 49.7 22.2 49.7 49.7s-22.2 49.7-49.7 49.7z" fill="#169F65" opacity=".8" p-id="13760"></path><path d="M387.9 757H185.6c-27.4 0-49.7-22.2-49.7-49.7s22.2-49.7 49.7-49.7h202.3c27.4 0 49.7 22.2 49.7 49.7S415.3 757 387.9 757z" fill="#169F65" opacity=".8" p-id="13761"></path><path d="M838.4 757H636.1c-27.4 0-49.7-22.2-49.7-49.7s22.2-49.7 49.7-49.7h202.3c27.4 0 49.7 22.2 49.7 49.7s-22.2 49.7-49.7 49.7z" fill="#169F65" opacity=".8" p-id="13762"></path><path d="M504 920.4c-15.6 0-30.9-7.3-40.6-20.9L347.3 736.1c-15.9-22.4-10.6-53.4 11.7-69.3 22.4-15.9 53.4-10.7 69.3 11.7l116.1 163.4c15.9 22.4 10.6 53.4-11.7 69.3-8.7 6.2-18.7 9.2-28.7 9.2z" fill="#169F65" opacity=".8" p-id="13763"></path><path d="M503.9 920.4c-11 0-22-3.6-31.2-11.1-21.3-17.3-24.6-48.6-7.4-69.9L597.5 676c17.3-21.4 48.6-24.7 69.9-7.4 21.3 17.3 24.6 48.6 7.4 69.9L542.6 902c-9.8 12.1-24.2 18.4-38.7 18.4z" fill="#169F65" opacity=".8" p-id="13764"></path><path d="M185.6 757c-27.4 0-49.7-22.2-49.7-49.7v-483.6c0-27.4 22.2-49.7 49.7-49.7 27.4 0 49.7 22.2 49.7 49.7v483.6c0 27.4-22.3 49.7-49.7 49.7z" fill="#169F65" opacity=".8" p-id="13765"></path><path d="M838.4 757c-27.4 0-49.7-22.2-49.7-49.7v-483.6c0-27.4 22.2-49.7 49.7-49.7 27.4 0 49.7 22.2 49.7 49.7v483.6c0 27.4-22.2 49.7-49.7 49.7z" fill="#169F65" opacity=".8" p-id="13766"></path></svg>