<?xml version="1.0" standalone="no"?><!DOCTYPE svg PUBLIC "-//W3C//DTD SVG 1.1//EN" "http://www.w3.org/Graphics/SVG/1.1/DTD/svg11.dtd"><svg t="1577549296791" class="icon" viewBox="0 0 1024 1024" version="1.1" xmlns="http://www.w3.org/2000/svg" p-id="16068" xmlns:xlink="http://www.w3.org/1999/xlink" width="200" height="200"><defs><style type="text/css"></style></defs><path d="M685.25335 327.156108c4.266338 0 8.334147-1.694595 11.357118-4.689812l100.680059-100.789521c6.243447-6.27082 6.243447-16.411785 0-22.654976l-100.680059-100.704586c-3.02297-2.994194-7.090779-4.66116-11.357118-4.66116L533.52664 93.656053 533.52664 76.143191c0-8.842389-7.203347-16.016789-16.073729-16.016789-8.898012 0-16.073729 7.1744-16.073729 16.016789l0 17.513886L248.888498 93.657077c-6.525891 0-12.401956 3.813862-14.860038 9.914814-2.485713 5.988388-1.101123 12.880355 3.502921 17.485233l89.295311 89.291652L237.532404 299.726386c-4.605067 4.576225-5.989657 11.469216-3.502921 17.513886 2.458082 6.073322 8.334147 9.914814 14.860038 9.914814l252.378115 0 0 33.755802L349.539903 360.910886c-4.293969 0-8.361778 1.694595-11.356094 4.746094l-100.651405 100.675934c-6.271077 6.243191-6.271077 16.411785 0 22.73991l100.651405 100.704586c2.994317 2.994194 7.062125 4.66116 11.356094 4.66116L501.379181 594.438571l0 344.937077c0 8.9263 7.175717 16.156982 16.073729 16.156982 8.870382 0 16.073729-7.230682 16.073729-16.156982L533.52664 594.438571l252.378115 0c6.498261 0 12.344648-3.870144 14.831384-9.859555 2.485713-6.01704 1.129776-12.993942-3.446636-17.542538l-89.296334-89.347934 89.296334-89.348957c4.576413-4.576225 5.932349-11.469216 3.446636-17.513886-2.486736-5.988388-8.334147-9.914814-14.831384-9.914814L533.386441 360.910886l0-33.755802L685.25335 327.155085zM747.119861 393.058051l-73.222605 73.275887c-6.271077 6.243191-6.271077 16.411785 0 22.73991l73.222605 73.219605L356.178362 562.293453l-84.577676-84.602863 84.577676-84.631516L747.119861 393.059074zM287.618131 295.037597l73.30652-73.359798c6.214793-6.27082 6.214793-16.411785 0-22.654976l-73.277866-73.247234 390.969129 0 84.577676 84.574211-84.577676 84.687798L287.618131 295.037597z" p-id="16069" fill="#EA759F"></path></svg>