<?xml version="1.0" standalone="no"?><!DOCTYPE svg PUBLIC "-//W3C//DTD SVG 1.1//EN" "http://www.w3.org/Graphics/SVG/1.1/DTD/svg11.dtd"><svg t="1577502205370" class="icon" viewBox="0 0 1024 1024" version="1.1" xmlns="http://www.w3.org/2000/svg" p-id="16144" xmlns:xlink="http://www.w3.org/1999/xlink" width="200" height="200"><defs><style type="text/css"></style></defs><path d="M128 179.2l43.008 0 0-43.008-43.008 0L128 179.2zM128 346.112l43.008 0 0-43.008-43.008 0L128 346.112zM128 260.096l43.008 0 0-43.008-43.008 0L128 260.096zM171.008 763.904l-43.008 0 0 43.008 43.008 0L171.008 763.904zM171.008 596.992l-43.008 0 0 43.008 43.008 0L171.008 596.992zM171.008 844.8l-43.008 0 0 43.008 43.008 0L171.008 844.8zM128 427.008l43.008 0 0-43.008-43.008 0L128 427.008zM171.008 677.888l-43.008 0 0 43.008 43.008 0L171.008 677.888zM836.608 260.096l43.008 0 0-43.008-43.008 0L836.608 260.096zM836.608 179.2l43.008 0 0-43.008-43.008 0L836.608 179.2zM836.608 346.112l43.008 0 0-43.008-43.008 0L836.608 346.112zM878.592 596.992l-43.008 0 0 43.008 43.008 0L878.592 596.992zM878.592 55.296 128 55.296c-47.104 0-84.992 37.888-84.992 84.992l0 750.592c0 47.104 37.888 84.992 84.992 84.992l750.592 0c47.104 0 84.992-38.912 84.992-84.992L963.584 136.192C960.512 89.088 925.696 55.296 878.592 55.296zM212.992 929.792l-84.992 0c-21.504 0-43.008-17.408-43.008-43.008L84.992 533.504l128 0L212.992 929.792zM212.992 490.496 84.992 490.496 84.992 136.192c0-21.504 17.408-43.008 43.008-43.008l84.992 0L212.992 490.496zM750.592 929.792 251.904 929.792 251.904 533.504l499.712 0L751.616 929.792zM750.592 490.496 251.904 490.496 251.904 94.208l499.712 0L751.616 490.496zM921.6 887.808c0 21.504-17.408 43.008-43.008 43.008l-84.992 0L793.6 533.504l123.904 0 0 354.304L921.6 887.808zM921.6 490.496 797.696 490.496 797.696 94.208l84.992 0c21.504 0 43.008 17.408 43.008 43.008l0 354.304L921.6 491.52zM836.608 427.008l43.008 0 0-43.008-43.008 0L836.608 427.008zM878.592 677.888l-43.008 0 0 43.008 43.008 0L878.592 677.888zM878.592 763.904l-43.008 0 0 43.008 43.008 0L878.592 763.904zM878.592 844.8l-43.008 0 0 43.008 43.008 0L878.592 844.8z" p-id="16145" fill="#515151"></path></svg>