<?xml version="1.0" standalone="no"?><!DOCTYPE svg PUBLIC "-//W3C//DTD SVG 1.1//EN" "http://www.w3.org/Graphics/SVG/1.1/DTD/svg11.dtd"><svg t="1577417689559" class="icon" viewBox="0 0 1024 1024" version="1.1" xmlns="http://www.w3.org/2000/svg" p-id="4751" xmlns:xlink="http://www.w3.org/1999/xlink" width="200" height="200"><defs><style type="text/css"></style></defs><path d="M108.986625 1024C87.331036 1024 68.769102 1005.438066 68.769102 983.782477V470.23565c0-21.655589 18.561934-40.217523 40.217523-40.217523 21.655589 0 40.217523 18.561934 40.217522 40.217523v513.546827c0 23.202417-18.561934 40.217523-40.217522 40.217523z" fill="#F39800" p-id="4752"></path><path d="M554.47303 255.226586L795.778166 0H135.282697C98.15883 0 68.769102 29.389728 68.769102 66.513595v386.706949c0 37.123867 29.389728 66.513595 66.513595 66.513595h646.574018L542.098407 266.054381l12.374623-10.827795z" fill="#F39800" p-id="4753"></path><path d="M780.309888 298.537764c-20.108761-21.655589-20.108761-54.138973 0-75.794562L947.367289 46.404834c17.015106-17.015106 4.640483-46.404834-20.108761-46.404834h-80.435045L593.143724 267.601208l239.758309 253.679759h94.356495c24.749245 0 37.123867-29.389728 20.108761-46.404834L780.309888 298.537764z" fill="#F39800" p-id="4754"></path></svg>